{
    "asset" : {
        "generator" : "Khronos glTF Blender I/O v0.9.35",
        "version" : "2.0"
    },
    "scene" : 0,
    "scenes" : [
        {
            "name" : "Scene",
            "nodes" : [
                0
            ]
        }
    ],
    "nodes" : [
        {
            "mesh" : 0,
            "name" : "gizmo",
            "rotation" : [
                0,
                0.7071067690849304,
                0,
                0.7071067690849304
            ]
        }
    ],
    "materials" : [
        {
            "doubleSided" : true,
            "name" : "Material.003",
            "pbrMetallicRoughness" : {
                "baseColorFactor" : [
                    1,
                    0,
                    0.005350740626454353,
                    1
                ],
                "metallicFactor" : 0,
                "roughnessFactor" : 0.5
            }
        },
        {
            "doubleSided" : true,
            "name" : "Material.002",
            "pbrMetallicRoughness" : {
                "baseColorFactor" : [
                    0,
                    0.003941043745726347,
                    1,
                    1
                ],
                "metallicFactor" : 0,
                "roughnessFactor" : 0.5
            }
        },
        {
            "doubleSided" : true,
            "name" : "Material.001",
            "pbrMetallicRoughness" : {
                "baseColorFactor" : [
                    6.48516618184658e-08,
                    1,
                    0,
                    1
                ],
                "metallicFactor" : 0,
                "roughnessFactor" : 0.5
            }
        }
    ],
    "meshes" : [
        {
            "name" : "Cone.002",
            "primitives" : [
                {
                    "attributes" : {
                        "POSITION" : 0,
                        "NORMAL" : 1,
                        "TEXCOORD_0" : 2
                    },
                    "indices" : 3,
                    "material" : 0
                },
                {
                    "attributes" : {
                        "POSITION" : 4,
                        "NORMAL" : 5,
                        "TEXCOORD_0" : 6
                    },
                    "indices" : 7,
                    "material" : 1
                },
                {
                    "attributes" : {
                        "POSITION" : 8,
                        "NORMAL" : 9,
                        "TEXCOORD_0" : 10
                    },
                    "indices" : 11,
                    "material" : 2
                }
            ]
        }
    ],
    "accessors" : [
        {
            "bufferView" : 0,
            "componentType" : 5126,
            "count" : 835,
            "max" : [
                0.09552304446697235,
                0.09552303701639175,
                0.5431022644042969
            ],
            "min" : [
                -0.09552309662103653,
                -0.09552309662103653,
                -0.032285839319229126
            ],
            "type" : "VEC3"
        },
        {
            "bufferView" : 1,
            "componentType" : 5126,
            "count" : 835,
            "type" : "VEC3"
        },
        {
            "bufferView" : 2,
            "componentType" : 5126,
            "count" : 835,
            "type" : "VEC2"
        },
        {
            "bufferView" : 3,
            "componentType" : 5123,
            "count" : 1353,
            "type" : "SCALAR"
        },
        {
            "bufferView" : 4,
            "componentType" : 5126,
            "count" : 836,
            "max" : [
                0.032285965979099274,
                0.0955231562256813,
                0.09552311897277832
            ],
            "min" : [
                -0.5431022644042969,
                -0.09552297741174698,
                -0.09552302956581116
            ],
            "type" : "VEC3"
        },
        {
            "bufferView" : 5,
            "componentType" : 5126,
            "count" : 836,
            "type" : "VEC3"
        },
        {
            "bufferView" : 6,
            "componentType" : 5126,
            "count" : 836,
            "type" : "VEC2"
        },
        {
            "bufferView" : 7,
            "componentType" : 5123,
            "count" : 1338,
            "type" : "SCALAR"
        },
        {
            "bufferView" : 8,
            "componentType" : 5126,
            "count" : 823,
            "max" : [
                0.09552303701639175,
                0.5431022644042969,
                0.09552311897277832
            ],
            "min" : [
                -0.09552309662103653,
                -0.03228580206632614,
                -0.09552302956581116
            ],
            "type" : "VEC3"
        },
        {
            "bufferView" : 9,
            "componentType" : 5126,
            "count" : 823,
            "type" : "VEC3"
        },
        {
            "bufferView" : 10,
            "componentType" : 5126,
            "count" : 823,
            "type" : "VEC2"
        },
        {
            "bufferView" : 11,
            "componentType" : 5123,
            "count" : 1335,
            "type" : "SCALAR"
        }
    ],
    "bufferViews" : [
        {
            "buffer" : 0,
            "byteLength" : 10020,
            "byteOffset" : 0
        },
        {
            "buffer" : 0,
            "byteLength" : 10020,
            "byteOffset" : 10020
        },
        {
            "buffer" : 0,
            "byteLength" : 6680,
            "byteOffset" : 20040
        },
        {
            "buffer" : 0,
            "byteLength" : 2706,
            "byteOffset" : 26720
        },
        {
            "buffer" : 0,
            "byteLength" : 10032,
            "byteOffset" : 29428
        },
        {
            "buffer" : 0,
            "byteLength" : 10032,
            "byteOffset" : 39460
        },
        {
            "buffer" : 0,
            "byteLength" : 6688,
            "byteOffset" : 49492
        },
        {
            "buffer" : 0,
            "byteLength" : 2676,
            "byteOffset" : 56180
        },
        {
            "buffer" : 0,
            "byteLength" : 9876,
            "byteOffset" : 58856
        },
        {
            "buffer" : 0,
            "byteLength" : 9876,
            "byteOffset" : 68732
        },
        {
            "buffer" : 0,
            "byteLength" : 6584,
            "byteOffset" : 78608
        },
        {
            "buffer" : 0,
            "byteLength" : 2670,
            "byteOffset" : 85192
        }
    ],
    "buffers" : [
        {
            "byteLength" : 87864,
            "uri" : "data:application/octet-stream;base64,"
        }
    ]
}
